<?xml version="1.0" standalone="no"?>
<svg viewBox="0 0 200 200" xmlns="http://www.w3.org/2000/svg">
  <path fill="#FFCBAA" d="M33.8,-56.8C42.7,-46.9,47.9,-35.6,50.6,-24.6C53.2,-13.6,53.3,-3,52.6,8.1C51.8,19.2,50.3,30.7,46,45.1C41.7,59.4,34.6,76.6,24,77.9C13.5,79.2,-0.6,64.6,-17.7,59.8C-34.7,54.9,-54.7,59.9,-67.6,53.7C-80.4,47.6,-86.1,30.4,-83.6,15C-81.1,-0.3,-70.5,-13.8,-60.7,-24.5C-50.8,-35.3,-41.8,-43.2,-31.9,-52.6C-21.9,-62,-11,-72.9,0.8,-74.1C12.5,-75.2,24.9,-66.7,33.8,-56.8Z" transform="translate(100 100)" />
</svg>
