<?xml version="1.0" standalone="no"?>
<svg viewBox="0 0 200 200" xmlns="http://www.w3.org/2000/svg">
  <path fill="#ffcbaa" d="M38.8,-62.3C48.6,-54.2,53.6,-40.5,58.7,-27.4C63.9,-14.3,69.2,-1.8,70.5,12.3C71.8,26.4,69.2,42,61.3,55.8C53.5,69.5,40.4,81.4,26,83C11.7,84.7,-4.1,76.1,-18.9,69.4C-33.7,62.7,-47.5,57.9,-56.8,48.5C-66.1,39.1,-70.9,25,-73.4,10.3C-76,-4.4,-76.3,-19.7,-69.4,-30.5C-62.6,-41.2,-48.5,-47.4,-35.8,-54.2C-23,-60.9,-11.5,-68.2,1.5,-70.5C14.5,-72.9,29.1,-70.4,38.8,-62.3Z" transform="translate(100 100)" />
</svg>
